<svg width="60" height="11" viewBox="0 0 60 11" fill="none" xmlns="http://www.w3.org/2000/svg">
<path d="M4.72275 9.628L0.0907496 6.628V5.404L4.72275 2.404V4L1.54275 5.992V6.04L4.72275 8.032V9.628ZM6.72206 10L9.15806 2.176H11.2701L13.7061 10H11.8341L10.8261 6.04C10.7301 5.648 10.6261 5.232 10.5141 4.792C10.4021 4.352 10.2981 3.928 10.2021 3.52H10.1541C10.0581 3.928 9.95806 4.352 9.85406 4.792C9.75006 5.232 9.64606 5.648 9.54206 6.04L8.52206 10H6.72206ZM8.33006 8.14V6.76H12.0741V8.14H8.33006ZM17.6014 10.144C16.8494 10.144 16.2414 9.868 15.7774 9.316C15.3214 8.756 15.0934 7.992 15.0934 7.024C15.0934 6.376 15.2134 5.82 15.4534 5.356C15.7014 4.892 16.0214 4.536 16.4134 4.288C16.8054 4.032 17.2134 3.904 17.6374 3.904C17.9654 3.904 18.2494 3.96 18.4894 4.072C18.7294 4.184 18.9454 4.34 19.1374 4.54H19.1854L19.1014 3.616V1.588H20.8654V10H19.4254L19.2934 9.388H19.2574C19.0414 9.604 18.7854 9.784 18.4894 9.928C18.2014 10.072 17.9054 10.144 17.6014 10.144ZM18.0574 8.704C18.2574 8.704 18.4414 8.664 18.6094 8.584C18.7854 8.496 18.9494 8.352 19.1014 8.152V5.74C18.9414 5.596 18.7774 5.496 18.6094 5.44C18.4494 5.376 18.2814 5.344 18.1054 5.344C17.8894 5.344 17.6894 5.404 17.5054 5.524C17.3214 5.644 17.1734 5.828 17.0614 6.076C16.9574 6.316 16.9054 6.624 16.9054 7C16.9054 7.584 17.0054 8.016 17.2054 8.296C17.4054 8.568 17.6894 8.704 18.0574 8.704ZM25.7807 10V5.428H23.3807V4.048H27.5447V10H25.7807ZM26.5847 3.112C26.2487 3.112 25.9687 3.016 25.7447 2.824C25.5207 2.624 25.4087 2.364 25.4087 2.044C25.4087 1.716 25.5207 1.452 25.7447 1.252C25.9687 1.044 26.2487 0.939999 26.5847 0.939999C26.9287 0.939999 27.2087 1.044 27.4247 1.252C27.6487 1.452 27.7607 1.716 27.7607 2.044C27.7607 2.364 27.6487 2.624 27.4247 2.824C27.2087 3.016 26.9287 3.112 26.5847 3.112ZM33.96 10.144C33.336 10.144 32.788 9.988 32.316 9.676C31.844 9.364 31.476 8.908 31.212 8.308C30.948 7.7 30.816 6.948 30.816 6.052C30.816 5.18 30.948 4.448 31.212 3.856C31.476 3.256 31.844 2.804 32.316 2.5C32.788 2.188 33.336 2.032 33.96 2.032C34.584 2.032 35.132 2.188 35.604 2.5C36.076 2.804 36.444 3.256 36.708 3.856C36.972 4.448 37.104 5.18 37.104 6.052C37.104 6.948 36.972 7.7 36.708 8.308C36.444 8.908 36.076 9.364 35.604 9.676C35.132 9.988 34.584 10.144 33.96 10.144ZM33.96 8.62C34.232 8.62 34.468 8.524 34.668 8.332C34.868 8.132 35.02 7.844 35.124 7.468C35.236 7.084 35.292 6.612 35.292 6.052C35.292 5.508 35.236 5.052 35.124 4.684C35.02 4.316 34.868 4.036 34.668 3.844C34.468 3.652 34.232 3.556 33.96 3.556C33.688 3.556 33.452 3.652 33.252 3.844C33.052 4.036 32.896 4.316 32.784 4.684C32.68 5.052 32.628 5.508 32.628 6.052C32.628 6.612 32.68 7.084 32.784 7.468C32.896 7.844 33.052 8.132 33.252 8.332C33.452 8.524 33.688 8.62 33.96 8.62ZM39.1633 10V2.176H41.7913C42.3353 2.176 42.8233 2.236 43.2553 2.356C43.6873 2.468 44.0273 2.664 44.2753 2.944C44.5313 3.224 44.6593 3.616 44.6593 4.12C44.6593 4.472 44.5513 4.812 44.3353 5.14C44.1193 5.468 43.7793 5.692 43.3153 5.812V5.86C43.8753 5.956 44.2993 6.156 44.5873 6.46C44.8753 6.756 45.0193 7.168 45.0193 7.696C45.0193 8.224 44.8873 8.66 44.6233 9.004C44.3593 9.34 43.9993 9.592 43.5433 9.76C43.0953 9.92 42.5873 10 42.0193 10H39.1633ZM40.9273 5.32H41.7073C42.1393 5.32 42.4513 5.236 42.6433 5.068C42.8353 4.892 42.9313 4.656 42.9313 4.36C42.9313 4.072 42.8313 3.868 42.6313 3.748C42.4393 3.62 42.1353 3.556 41.7193 3.556H40.9273V5.32ZM40.9273 8.62H41.8753C42.3553 8.62 42.7113 8.532 42.9433 8.356C43.1753 8.18 43.2913 7.916 43.2913 7.564C43.2913 7.22 43.1753 6.972 42.9433 6.82C42.7113 6.668 42.3553 6.592 41.8753 6.592H40.9273V8.62ZM49.7666 10.144C49.2386 10.144 48.7146 10.048 48.1946 9.856C47.6826 9.664 47.2146 9.384 46.7906 9.016L47.8106 7.804C48.1066 8.044 48.4306 8.24 48.7826 8.392C49.1426 8.544 49.5106 8.62 49.8866 8.62C50.2626 8.62 50.5386 8.556 50.7146 8.428C50.8986 8.3 50.9906 8.136 50.9906 7.936C50.9906 7.752 50.9426 7.608 50.8466 7.504C50.7506 7.392 50.6106 7.296 50.4266 7.216C50.2426 7.128 50.0266 7.032 49.7786 6.928L48.7706 6.496C48.4826 6.384 48.2106 6.236 47.9546 6.052C47.6986 5.86 47.4906 5.628 47.3306 5.356C47.1786 5.076 47.1026 4.744 47.1026 4.36C47.1026 3.928 47.2226 3.54 47.4626 3.196C47.7106 2.844 48.0466 2.564 48.4706 2.356C48.9026 2.14 49.4026 2.032 49.9706 2.032C50.4426 2.032 50.9066 2.12 51.3626 2.296C51.8186 2.472 52.2226 2.728 52.5746 3.064L51.6746 4.18C51.4026 3.98 51.1306 3.828 50.8586 3.724C50.5866 3.612 50.2586 3.556 49.8746 3.556C49.5866 3.556 49.3506 3.616 49.1666 3.736C48.9826 3.856 48.8906 4.032 48.8906 4.264C48.8906 4.416 48.9466 4.544 49.0586 4.648C49.1706 4.752 49.3226 4.844 49.5146 4.924C49.7066 5.004 49.9266 5.092 50.1746 5.188L51.1226 5.596C51.4746 5.724 51.7746 5.884 52.0226 6.076C52.2706 6.26 52.4626 6.488 52.5986 6.76C52.7346 7.032 52.8026 7.352 52.8026 7.72C52.8026 8.152 52.6826 8.552 52.4426 8.92C52.2106 9.288 51.8666 9.584 51.4106 9.808C50.9626 10.032 50.4146 10.144 49.7666 10.144ZM55.2819 9.628V8.032L58.4619 6.04V5.992L55.2819 4V2.404L59.9139 5.404V6.628L55.2819 9.628Z" fill="url(#paint0_linear_2_19)"/>
<defs>
<linearGradient id="paint0_linear_2_19" x1="30" y1="-2" x2="30" y2="13" gradientUnits="userSpaceOnUse">
<stop offset="0.0346339" stop-color="#D9D9D9" stop-opacity="0"/>
<stop offset="0.616714" stop-color="#D9D9D9"/>
</linearGradient>
</defs>
</svg>
